<?xml version="1.0" encoding="UTF-8"?>
<svg width="22px" height="22px" viewBox="0 0 22 22" version="1.1" xmlns="http://www.w3.org/2000/svg" xmlns:xlink="http://www.w3.org/1999/xlink">
    <!-- Generator: Sketch 55.2 (78181) - https://sketchapp.com -->
    <title>Combined Shape</title>
    <desc>Created with Sketch.</desc>
    <g id="加油站1" stroke="none" stroke-width="1" fill="none" fill-rule="evenodd">
        <g id="换班" transform="translate(-139.000000, -125.000000)" fill="#41C060">
            <g id="矩形_15-3" transform="translate(98.000000, 16.000000)">
                <g id="编组-2" transform="translate(41.000000, 109.000000)">
                    <path d="M19,11 L19,13 C19,14.3333333 17,14.3333333 17,13 L17,11 L15,11 C13.6666667,11 13.6666667,9 15,9 L17,9 L17,7 C17,5.66666667 19,5.66666667 19,7 L19,9 L21,9 C22.3333333,9 22.3333333,11 21,11 L19,11 Z M8,10 C5.23857625,10 3,7.76142375 3,5 C3,2.23857625 5.23857625,0 8,0 C10.7614237,0 13,2.23857625 13,5 C13,7.76142375 10.7614237,10 8,10 Z M8,8 C9.65685425,8 11,6.65685425 11,5 C11,3.34314575 9.65685425,2 8,2 C6.34314575,2 5,3.34314575 5,5 C5,6.65685425 6.34314575,8 8,8 Z M8,11 C12.418278,11 16,14.581722 16,19 L16,21 C16,21.5522847 15.5522847,22 15,22 L1,22 C0.44771525,22 0,21.5522847 0,21 L0,19 C0,14.581722 3.581722,11 8,11 Z M14,20 L14,19 C14,15.6862915 11.3137085,13 8,13 C4.6862915,13 2,15.6862915 2,19 L2,20 L14,20 Z" id="Combined-Shape"></path>
                </g>
            </g>
        </g>
    </g>
</svg>