<?xml version="1.0" encoding="UTF-8"?>
<svg width="16px" height="18px" viewBox="0 0 16 18" version="1.1" xmlns="http://www.w3.org/2000/svg" xmlns:xlink="http://www.w3.org/1999/xlink">
    <!-- Generator: Sketch 55.2 (78181) - https://sketchapp.com -->
    <title>Shape</title>
    <desc>Created with Sketch.</desc>
    <g id="加油站1" stroke="none" stroke-width="1" fill="none" fill-rule="evenodd">
        <g id="换班" transform="translate(-329.000000, -87.000000)" fill="#41C060">
            <g id="矩形_15-3" transform="translate(98.000000, 16.000000)">
                <g id="编组-4" transform="translate(231.000000, 70.000000)">
                    <g id="iconspace_Search_Zoom_25px-Copy" transform="translate(0.000000, 1.000000)">
                        <path d="M2.98611111,4.91203704 C2.98611111,2.29124135 5.11068579,0.166666667 7.73148148,0.166666667 C10.3522772,0.166666667 12.4768519,2.29124135 12.4768519,4.91203704 C12.4768519,6.55765324 11.6392015,8.00762572 10.3670213,8.85883395 C13.22203,9.92682568 15.2546296,12.679747 15.2546296,15.9074074 L15.2546296,17.875 L0.208333333,17.875 L0.208333333,15.9074074 C0.208333333,12.679747 2.24093295,9.92682568 5.09594167,8.85883395 C3.82376147,8.00762572 2.98611111,6.55765324 2.98611111,4.91203704 Z M7.73148148,7.57407407 C9.20168394,7.57407407 10.3935185,6.3822395 10.3935185,4.91203704 C10.3935185,3.44183458 9.20168394,2.25 7.73148148,2.25 C6.26127902,2.25 5.06944444,3.44183458 5.06944444,4.91203704 C5.06944444,6.3822395 6.26127902,7.57407407 7.73148148,7.57407407 Z M7.73148148,10.4675926 C4.76583056,10.4675926 2.35446687,12.8407783 2.29287354,15.7916667 L13.1700894,15.7916667 C13.1084961,12.8407783 10.6971324,10.4675926 7.73148148,10.4675926 Z" id="Shape"></path>
                    </g>
                </g>
            </g>
        </g>
    </g>
</svg>