<?xml version="1.0" encoding="UTF-8"?>
<svg width="18px" height="18px" viewBox="0 0 18 18" version="1.1" xmlns="http://www.w3.org/2000/svg" xmlns:xlink="http://www.w3.org/1999/xlink">
    <!-- Generator: Sketch 55.2 (78181) - https://sketchapp.com -->
    <title>Shape</title>
    <desc>Created with Sketch.</desc>
    <g id="加油站1" stroke="none" stroke-width="1" fill="none" fill-rule="evenodd">
        <g id="换班" transform="translate(-498.000000, -88.000000)" fill="#41C060">
            <g id="矩形_15-3" transform="translate(98.000000, 16.000000)">
                <g id="编组-5" transform="translate(400.000000, 70.000000)">
                    <g id="iconspace_Search_Zoom_25px-Copy" transform="translate(0.000000, 2.000000)">
                        <path d="M15.9357052,8.04724847 C15.51547,4.95924969 13.0814238,2.51165201 10,2.07088886 L10,8.04592763 L15.9357052,8.04724847 Z M17.999931,9.03561169 C17.9999779,9.03963808 18.0000009,9.04367019 18,9.04770788 C17.9999983,9.05556033 17.999906,9.06339163 17.9997242,9.07120078 C17.9614637,14.0089855 13.9468075,18 9,18 C4.02943725,18 0,13.9705627 0,9 C0,4.02943725 4.02943725,0 9,0 C13.9705627,0 18,4.02943725 18,9 C18,9.01187595 17.999977,9.02374653 17.999931,9.03561169 Z M15.9221885,10.0472456 L8.99977747,10.0457051 C8.44757964,10.0455822 8,9.59790298 8,9.04570513 L8,2.07088886 C4.60770586,2.55611852 2,5.47352809 2,9 C2,12.8659932 5.13400675,16 9,16 C12.5100828,16 15.4167513,13.4164762 15.9221885,10.0472456 Z" id="Shape"></path>
                    </g>
                </g>
            </g>
        </g>
    </g>
</svg>