<?xml version="1.0" encoding="UTF-8"?>
<svg width="20px" height="20px" viewBox="0 0 20 20" version="1.1" xmlns="http://www.w3.org/2000/svg" xmlns:xlink="http://www.w3.org/1999/xlink">
    <!-- Generator: Sketch 55.2 (78181) - https://sketchapp.com -->
    <title>Shape</title>
    <desc>Created with Sketch.</desc>
    <g id="加油站1" stroke="none" stroke-width="1" fill="none" fill-rule="evenodd">
        <g id="换班" transform="translate(-138.000000, -86.000000)" fill="#41C060" fill-rule="nonzero">
            <g id="矩形_15-3" transform="translate(98.000000, 16.000000)">
                <path d="M57.1,78.3 L56.7118943,78.3 C55.9813719,78.3 55.3089168,78.0410035 54.7941437,77.61064 C54.2793706,78.0410035 53.6069156,78.3 52.8763931,78.3 L51.9175178,78.3 C51.1869954,78.3 50.5145403,78.0410035 49.9997672,77.61064 C49.4849941,78.0410035 48.8125391,78.3 48.0820166,78.3 L47.1231413,78.3 C46.3926189,78.3 45.7201638,78.0410035 45.2053907,77.61064 C44.6906176,78.0410035 44.0181626,78.3 43.2876401,78.3 L42.9,78.3 L42.9,88 L47,88 L47,82 C47,81.4477153 47.4477153,81 48,81 L52.5,81 C53.0522847,81 53.5,81.4477153 53.5,82 L53.5,88 L57.1,88 L57.1,78.3 L57.1,78.3 Z M59.1,77.5818956 L59.1,88.1 C59.1,89.149341 58.249341,90 57.2,90 L42.8,90 C41.750659,90 40.9,89.149341 40.9,88.1 L40.9,77.5821218 C40.3479752,77.0917995 40,76.3899355 40,75.6028218 C40,75.3463211 40.0380584,75.091267 40.1129138,74.8453596 L41.1563475,71.4175769 C41.4126811,70.5754959 42.1894334,70 43.0696649,70 L56.9298696,70 C57.810101,70 58.5868534,70.5754959 58.8431869,71.4175769 L59.8866206,74.8453596 C60.1977836,75.8675605 59.8518469,76.9121249 59.1,77.5818956 Z M51.5,88 L51.5,83 L49,83 L49,88 L51.5,88 L51.5,88 Z M57.9733033,75.4277827 L56.9298696,72 L43.0696649,72 L42.0262312,75.4277827 C42.0087738,75.485132 42,75.5439307 42,75.6028218 C42,75.9732012 42.348177,76.3 42.8082025,76.3 L43.2876401,76.3 C43.8081674,76.3 44.2053907,75.9271663 44.2053907,75.5 C44.2053907,74.1666667 46.2053907,74.1666667 46.2053907,75.5 C46.2053907,75.9271663 46.602614,76.3 47.1231413,76.3 L48.0820166,76.3 C48.6025439,76.3 48.9997672,75.9271663 48.9997672,75.5 C48.9997672,74.1666667 50.9997672,74.1666667 50.9997672,75.5 C50.9997672,75.9271663 51.3969905,76.3 51.9175178,76.3 L52.8763931,76.3 C53.3969204,76.3 53.7941437,75.9271663 53.7941437,75.5 C53.7941437,74.1666667 55.7941437,74.1666667 55.7941437,75.5 C55.7941437,75.9271663 56.191367,76.3 56.7118943,76.3 L57.191332,76.3 C57.2719829,76.3 57.3520893,76.2894696 57.4290642,76.2688271 C57.8549656,76.1546126 58.079222,75.7757361 57.9733033,75.4277827 Z" id="Shape"></path>
            </g>
        </g>
    </g>
</svg>