<?xml version="1.0" encoding="UTF-8"?>
<svg width="20px" height="20px" viewBox="0 0 20 20" version="1.1" xmlns="http://www.w3.org/2000/svg" xmlns:xlink="http://www.w3.org/1999/xlink">
    <!-- Generator: Sketch 55.2 (78181) - https://sketchapp.com -->
    <title>Shape</title>
    <desc>Created with Sketch.</desc>
    <g id="加油站1" stroke="none" stroke-width="1" fill="none" fill-rule="evenodd">
        <g id="换班" transform="translate(-327.000000, -127.000000)" fill="#41C060">
            <g id="矩形_15-3" transform="translate(98.000000, 16.000000)">
                <g id="编组-6" transform="translate(229.000000, 111.000000)">
                    <path d="M20,3 L20,17.1818182 C20,18.7360198 18.7486596,20 17.2,20 L2.8,20 C1.25134044,20 0,18.7360198 0,17.1818182 L0,3 C0,1.34314575 1.34314575,0 3,0 L17,0 C18.6568542,0 20,1.34314575 20,3 Z M18,15.8292943 C17.6872211,15.9398458 17.3506354,16 17,16 L3,16 C2.64936458,16 2.31277893,15.9398458 2,15.8292943 L2,17.1818182 C2,17.6359248 2.36043446,18 2.8,18 L17.2,18 C17.6395655,18 18,17.6359248 18,17.1818182 L18,15.8292943 L18,15.8292943 Z M18,13 L18,3 C18,2.44771525 17.5522847,2 17,2 L3,2 C2.44771525,2 2,2.44771525 2,3 L2,13 C2,13.5522847 2.44771525,14 3,14 L17,14 C17.5522847,14 18,13.5522847 18,13 Z M11,4 L11.9531029,4 C12.5053877,4 12.9531029,4.44771525 12.9531029,5 L12.9531029,5.45424805 C12.9531029,6.0065328 12.5053877,6.45424805 11.9531029,6.45424805 C11.6021797,6.45424805 11.2934751,6.27348903 11.1150179,6 L9.01394714,6 L9.01394714,7.00090802 L11,7.00090802 C12.1045763,7.00090802 13,7.89633852 13,9.00090802 L13,10 C13,11.1045695 12.1045763,12 11,12 C10.9952588,12.5482519 10.5493623,12.9912415 10,12.9912415 C9.45063771,12.9912415 9.00474117,12.5482519 9.00003756,12 L8,12 C7.4378007,12 6.98608401,11.5366901 7.00032784,10.9746644 L7.01426814,10.4246156 C7.02826061,9.87250809 7.48717529,9.4362797 8.03928275,9.45027217 C8.42056743,9.45993535 8.7465863,9.68179372 8.90721896,10 L11,10 L11,9.00090802 L9.01394714,9.00090802 C7.90937764,9.00090802 7.01394714,8.10547752 7.01394714,7.00090802 L7.01394714,6 C7.01394714,4.90007955 7.90185591,4.0075413 9.00001117,4.00004754 C9,3.44771525 9.44771525,3 10,3 C10.5522847,3 11,3.44771525 11,4 Z" id="Shape"></path>
                </g>
            </g>
        </g>
    </g>
</svg>