<?xml version="1.0" encoding="UTF-8"?>
<svg width="23px" height="18px" viewBox="0 0 23 18" version="1.1" xmlns="http://www.w3.org/2000/svg" xmlns:xlink="http://www.w3.org/1999/xlink">
    <!-- Generator: Sketch 55.2 (78181) - https://sketchapp.com -->
    <title>路径</title>
    <desc>Created with Sketch.</desc>
    <g id="加油站1" stroke="none" stroke-width="1" fill="none" fill-rule="evenodd">
        <g id="锁定" transform="translate(-750.000000, -467.000000)" fill="#767676" fill-rule="nonzero">
            <g id="编组-6" transform="translate(583.000000, 273.000000)">
                <g id="编组-5" transform="translate(0.000000, 183.000000)">
                    <path d="M181.796443,11.2791544 C181.617306,11.0998287 181.373344,10.999291 181.119074,11 C180.864803,11.0007241 180.621419,11.1026352 180.443308,11.2829676 C180.09941,11.6248102 180.064928,12.1674345 180.36282,12.5495525 L186.816091,19.025333 L167.956464,19.025333 C167.700952,19.0268415 167.456537,19.1292885 167.27712,19.3100813 C167.097704,19.4908741 166.998023,19.7351626 167,19.9890736 C167,20.518572 167.42938,20.9471223 167.954537,20.9471223 L186.814182,20.9471223 L180.205644,27.5752643 C180.003171,27.9526451 180.067323,28.4165506 180.364729,28.7256668 C180.544581,28.9040248 180.789137,29.0028864 181.043206,29.0000651 C181.331533,28.9984675 181.607139,28.8817752 181.807936,28.6761507 L182.33693,28.1485682 L183.78974,26.6915083 L184.063811,26.4210486 L189.729366,20.7338051 C189.919065,20.5395887 190.016641,20.2743324 189.997709,20.0043265 L189.997709,19.9662315 C190.015532,19.6975195 189.918037,19.4338711 189.729366,19.2405661 L181.796443,11.2791544 Z" id="路径"></path>
                </g>
            </g>
        </g>
    </g>
</svg>