<?xml version="1.0" encoding="UTF-8"?>
<svg width="157px" height="157px" viewBox="0 0 157 157" version="1.1" xmlns="http://www.w3.org/2000/svg" xmlns:xlink="http://www.w3.org/1999/xlink">
    <!-- Generator: Sketch 55.2 (78181) - https://sketchapp.com -->
    <title>编组</title>
    <desc>Created with Sketch.</desc>
    <g id="加油站1" stroke="none" stroke-width="1" fill="none" fill-rule="evenodd" fill-opacity="0.8">
        <g id="锁定" transform="translate(-605.000000, -273.000000)" fill="#FFFFFF" fill-rule="nonzero">
            <g id="编组-6" transform="translate(583.000000, 273.000000)">
                <g id="编组" transform="translate(22.000000, 0.000000)">
                    <path d="M104.915034,72.1222656 C107.724279,72.1222656 110,74.3298964 110,77.054784 L110,113.062465 C110,115.791812 107.72907,118 104.920016,118 L52.0845831,118 C49.2762957,118 47,115.791812 47,113.062465 L47,77.054784 C47,74.3302681 49.2762957,72.1222656 52.0845831,72.1222656 L57.90947,72.1222656 L57.90947,58.9708652 C57.90947,47.9566789 67.1482257,39 78.5026829,39 C89.8569486,39 99.085164,47.9566789 99.085164,58.9708652 L99.085164,72.1222656 L104.915034,72.1222656 Z M81.4348901,95.5348932 C83.5439535,94.5215495 85.0051038,92.4902418 85,90.1090782 C85,86.7400754 82.0885108,84 78.4972379,84 C74.911279,84 72,86.7400755 72,90.1090782 C72,92.4900569 73.4609535,94.5215494 75.5700169,95.5348932 L75.5700169,103.356103 C75.570017,103.705404 75.8780315,104 76.260442,104 L80.7493854,104 C81.1270723,104 81.4348901,103.705589 81.4348901,103.356103 L81.4348901,95.5348932 Z M91,72 L91,59.2428463 C91,52.4949401 85.3972715,47 78.5050049,47 C71.6127382,47 66,52.4949401 66,59.2428463 L66,72 L91,72 Z M78.5,157 C35.1456471,157 0,121.854353 0,78.5 C0,35.1456471 35.1456471,0 78.5,0 C121.854353,0 157,35.1456471 157,78.5 C157,121.854353 121.854353,157 78.5,157 Z M78.5,150 C117.98836,150 150,117.98836 150,78.5 C150,39.0116404 117.98836,7 78.5,7 C39.0116404,7 7,39.0116404 7,78.5 C7,117.98836 39.0116404,150 78.5,150 Z" id="形状结合"></path>
                </g>
            </g>
        </g>
    </g>
</svg>